<?xml version="1.0" encoding="UTF-8"?>
<svg xmlns="http://www.w3.org/2000/svg" xmlns:xlink="http://www.w3.org/1999/xlink" width="49px" height="50px" viewBox="0 0 49 50" version="1.1">
<g id="surface1">
<path style=" stroke:none;fill-rule:nonzero;fill:rgb(0%,0%,0%);fill-opacity:1;" d="M 24.5 0.714844 C 38.03125 0.714844 49 11.585938 49 25 C 49 38.414062 38.03125 49.285156 24.5 49.285156 C 10.96875 49.285156 0 38.414062 0 25 C 0 11.585938 10.96875 0.714844 24.5 0.714844 Z M 24.5 0.714844 "/>
<path style=" stroke:none;fill-rule:nonzero;fill:rgb(43.137255%,46.27451%,49.019608%);fill-opacity:1;" d="M 26.957031 13.382812 L 21.976562 13.371094 L 21.972656 13.371094 C 16.71875 13.371094 12.605469 17.449219 12.605469 22.660156 C 12.605469 27.539062 16.433594 31.238281 21.570312 31.433594 L 21.570312 35.992188 C 21.570312 36.117188 21.625 36.332031 21.714844 36.46875 C 21.886719 36.738281 22.175781 36.882812 22.472656 36.882812 C 22.640625 36.882812 22.804688 36.839844 22.957031 36.742188 C 23.273438 36.542969 30.730469 31.8125 32.671875 30.1875 C 34.953125 28.269531 36.320312 25.460938 36.324219 22.675781 L 36.324219 22.652344 C 36.316406 17.453125 32.207031 13.382812 26.957031 13.382812 Z M 31.503906 28.824219 C 30.144531 29.96875 25.667969 32.878906 23.371094 34.355469 L 23.371094 30.558594 C 23.371094 30.066406 22.96875 29.667969 22.472656 29.667969 L 21.996094 29.667969 C 17.601562 29.667969 14.40625 26.71875 14.40625 22.660156 C 14.40625 18.453125 17.734375 15.15625 21.972656 15.15625 L 26.953125 15.167969 L 26.957031 15.167969 C 31.199219 15.167969 34.523438 18.460938 34.527344 22.664062 C 34.523438 24.9375 33.394531 27.242188 31.507812 28.824219 Z M 31.503906 28.824219 "/>
</g>
</svg>
