<?xml version="1.0" encoding="UTF-8"?>
<svg xmlns="http://www.w3.org/2000/svg" xmlns:xlink="http://www.w3.org/1999/xlink" width="49px" height="50px" viewBox="0 0 49 50" version="1.1">
<g id="surface1">
<path style=" stroke:none;fill-rule:nonzero;fill:rgb(0%,0%,0%);fill-opacity:1;" d="M 24.5 0.714844 C 38.03125 0.714844 49 11.585938 49 25 C 49 38.414062 38.03125 49.285156 24.5 49.285156 C 10.96875 49.285156 0 38.414062 0 25 C 0 11.585938 10.96875 0.714844 24.5 0.714844 Z M 24.5 0.714844 "/>
<path style=" stroke:none;fill-rule:nonzero;fill:rgb(43.137255%,46.27451%,49.019608%);fill-opacity:1;" d="M 38.636719 29.367188 C 38.285156 29.019531 37.714844 29.019531 37.363281 29.367188 L 34.695312 32.011719 L 34.695312 19.820312 C 34.695312 17.359375 32.675781 15.355469 30.191406 15.355469 L 23.167969 15.355469 C 22.667969 15.355469 22.265625 15.757812 22.265625 16.25 C 22.265625 16.742188 22.667969 17.144531 23.167969 17.144531 L 30.191406 17.144531 C 31.683594 17.144531 32.894531 18.34375 32.894531 19.820312 L 32.894531 32.011719 L 30.230469 29.367188 C 29.875 29.019531 29.304688 29.019531 28.957031 29.367188 C 28.605469 29.71875 28.601562 30.285156 28.957031 30.632812 L 33.160156 34.796875 C 33.332031 34.972656 33.5625 35.058594 33.796875 35.058594 C 34.027344 35.058594 34.253906 34.972656 34.433594 34.796875 L 38.636719 30.632812 C 38.988281 30.285156 38.988281 29.71875 38.636719 29.367188 Z M 25.832031 33.273438 L 18.808594 33.273438 C 17.316406 33.273438 16.105469 32.070312 16.105469 30.59375 L 16.105469 18.40625 L 18.769531 21.046875 C 18.949219 21.222656 19.179688 21.308594 19.410156 21.308594 C 19.640625 21.308594 19.871094 21.222656 20.046875 21.046875 C 20.398438 20.699219 20.398438 20.132812 20.046875 19.785156 L 15.84375 15.617188 C 15.492188 15.269531 14.921875 15.269531 14.570312 15.617188 L 10.367188 19.785156 C 10.015625 20.132812 10.015625 20.699219 10.367188 21.046875 C 10.71875 21.394531 11.289062 21.394531 11.640625 21.046875 L 14.304688 18.40625 L 14.304688 30.59375 C 14.304688 33.058594 16.328125 35.058594 18.808594 35.058594 L 25.835938 35.058594 C 26.332031 35.058594 26.734375 34.660156 26.734375 34.167969 C 26.734375 33.675781 26.332031 33.273438 25.835938 33.273438 Z M 25.832031 33.273438 "/>
</g>
</svg>
