<?xml version="1.0" encoding="UTF-8"?>
<svg xmlns="http://www.w3.org/2000/svg" xmlns:xlink="http://www.w3.org/1999/xlink" width="49px" height="50px" viewBox="0 0 49 50" version="1.1">
<g id="surface1">
<path style=" stroke:none;fill-rule:nonzero;fill:rgb(0%,0%,0%);fill-opacity:1;" d="M 24.5 0.714844 C 38.03125 0.714844 49 11.585938 49 25 C 49 38.414062 38.03125 49.285156 24.5 49.285156 C 10.96875 49.285156 0 38.414062 0 25 C 0 11.585938 10.96875 0.714844 24.5 0.714844 Z M 24.5 0.714844 "/>
<path style=" stroke:none;fill-rule:nonzero;fill:rgb(43.137255%,46.27451%,49.019608%);fill-opacity:1;" d="M 31.140625 19.605469 L 25.136719 13.65625 C 24.785156 13.304688 24.214844 13.304688 23.863281 13.65625 L 17.859375 19.605469 C 17.503906 19.957031 17.503906 20.519531 17.859375 20.867188 C 18.210938 21.214844 18.78125 21.21875 19.132812 20.867188 L 23.597656 16.441406 L 23.597656 28.570312 C 23.597656 29.0625 24.003906 29.464844 24.5 29.464844 C 24.996094 29.464844 25.402344 29.0625 25.402344 28.570312 L 25.402344 16.441406 L 29.867188 20.867188 C 30.042969 21.042969 30.273438 21.132812 30.503906 21.132812 C 30.734375 21.132812 30.964844 21.046875 31.140625 20.867188 C 31.492188 20.519531 31.492188 19.957031 31.140625 19.605469 Z M 31.140625 19.605469 "/>
<path style=" stroke:none;fill-rule:nonzero;fill:rgb(43.137255%,46.27451%,49.019608%);fill-opacity:1;" d="M 33.757812 36.839844 L 15.242188 36.839844 C 13.726562 36.839844 12.488281 35.613281 12.488281 34.109375 L 12.488281 27.382812 C 12.488281 26.886719 12.894531 26.488281 13.390625 26.488281 C 13.886719 26.488281 14.292969 26.886719 14.292969 27.382812 L 14.292969 34.109375 C 14.292969 34.628906 14.71875 35.050781 15.242188 35.050781 L 33.757812 35.050781 C 34.28125 35.050781 34.707031 34.628906 34.707031 34.109375 L 34.707031 27.382812 C 34.707031 26.886719 35.113281 26.488281 35.609375 26.488281 C 36.105469 26.488281 36.507812 26.886719 36.507812 27.382812 L 36.507812 34.109375 C 36.507812 35.613281 35.273438 36.839844 33.757812 36.839844 Z M 33.757812 36.839844 "/>
</g>
</svg>
